{
  "asset": {
    "version": "2.0",
    "generator": "THREE.GLTFExporter r169"
  },
  "scenes": [
    {
      "name": "Scene",
      "nodes": [
        0,
        12
      ]
    }
  ],
  "scene": 0,
  "nodes": [
    {
      "matrix": [
        1,
        0,
        0,
        0,
        0,
        1,
        0,
        0,
        0,
        0,
        1,
        0,
        5,
        10,
        -7.5,
        1
      ],
      "name": "DirectionalLight",
      "extensions": {
        "KHR_lights_punctual": {
          "light": 0
        }
      }
    },
    {
      "matrix": [
        1,
        0,
        0,
        0,
        0,
        1,
        0,
        0,
        0,
        0,
        1,
        0,
        -1.1147912729483629,
        1.2787603352282666,
        1.5603136927509684,
        1
      ],
      "name": "bucket",
      "mesh": 0
    },
    {
      "matrix": [
        -1,
        0,
        -1.2246467991473532e-16,
        0,
        0,
        1,
        0,
        0,
        1.2246467991473532e-16,
        0,
        -1,
        0,
        0.007020583629255395,
        0,
        0,
        1
      ],
      "name": "blender-bucket.obj",
      "children": [
        1
      ]
    },
    {
      "matrix": [
        1,
        0,
        0,
        0,
        0,
        -0.7071067811865475,
        -0.7071067811865476,
        0,
        0,
        0.7071067811865476,
        -0.7071067811865475,
        0,
        1.1414584573376922,
        2.1950567087426682,
        -0.9225096353412179,
        1
      ],
      "name": "Stick",
      "mesh": 1
    },
    {
      "name": "excavator_stick.obj"
    },
    {
      "matrix": [
        1.75,
        0,
        0,
        0,
        0,
        1.2374368670764577,
        -1.2374368670764586,
        0,
        0,
        1.2374368670764586,
        1.2374368670764577,
        0,
        1.1457615914041581,
        0,
        1.343044521920091,
        1
      ],
      "name": "boom",
      "mesh": 2
    },
    {
      "matrix": [
        1,
        0,
        0,
        0,
        0,
        1,
        0,
        0,
        0,
        0,
        1,
        0,
        0,
        0.9930850363968615,
        -1.0451605378645916,
        1
      ],
      "name": "excavator_boom.obj",
      "children": [
        5
      ]
    },
    {
      "matrix": [
        1,
        0,
        0,
        0,
        0,
        1,
        0,
        0,
        0,
        0,
        1,
        0,
        0,
        0,
        0.09257042224312118,
        1
      ],
      "name": "linkage",
      "children": [
        2,
        3,
        4,
        6
      ]
    },
    {
      "matrix": [
        -1,
        1.2246467991473532e-16,
        0,
        0,
        -1.2246467991473532e-16,
        -1,
        0,
        0,
        0,
        0,
        1,
        0,
        1.204,
        -0.7558015610755424,
        0.5653584244257019,
        1
      ],
      "name": "tracks1",
      "mesh": 3
    },
    {
      "matrix": [
        1,
        0,
        0,
        0,
        0,
        -2.220446049250313e-16,
        -1,
        0,
        0,
        1,
        -2.220446049250313e-16,
        0,
        0,
        0,
        0,
        1
      ],
      "name": "excavator_tracks_medium.obj",
      "children": [
        8
      ]
    },
    {
      "matrix": [
        1,
        0,
        0,
        0,
        0,
        -2.220446049250313e-16,
        -1,
        0,
        0,
        1,
        -2.220446049250313e-16,
        0,
        1.2040693035752241,
        0.5716401632719732,
        0.5201153768172125,
        1
      ],
      "name": "body1",
      "mesh": 4
    },
    {
      "name": "excavator_body_medium.obj",
      "children": [
        10
      ]
    },
    {
      "matrix": [
        1,
        0,
        0,
        0,
        0,
        1,
        0,
        0,
        0,
        0,
        1,
        0,
        -1.218572134952727,
        -0.5649099271992599,
        0,
        1
      ],
      "name": "hex",
      "children": [
        7,
        9,
        11
      ]
    }
  ],
  "extensions": {
    "KHR_lights_punctual": {
      "lights": [
        {
          "name": "DirectionalLight",
          "color": [
            1,
            1,
            1
          ],
          "intensity": 1,
          "type": "directional"
        }
      ]
    }
  },
  "bufferViews": [
    {
      "buffer": 0,
      "byteOffset": 0,
      "byteLength": 444996,
      "target": 34962,
      "byteStride": 12
    },
    {
      "buffer": 0,
      "byteOffset": 444996,
      "byteLength": 444996,
      "target": 34962,
      "byteStride": 12
    },
    {
      "buffer": 0,
      "byteOffset": 889992,
      "byteLength": 296664,
      "target": 34962,
      "byteStride": 8
    },
    {
      "buffer": 0,
      "byteOffset": 1186656,
      "byteLength": 2160,
      "target": 34962,
      "byteStride": 12
    },
    {
      "buffer": 0,
      "byteOffset": 1188816,
      "byteLength": 2160,
      "target": 34962,
      "byteStride": 12
    },
    {
      "buffer": 0,
      "byteOffset": 1190976,
      "byteLength": 1440,
      "target": 34962,
      "byteStride": 8
    },
    {
      "buffer": 0,
      "byteOffset": 1192416,
      "byteLength": 8496,
      "target": 34962,
      "byteStride": 12
    },
    {
      "buffer": 0,
      "byteOffset": 1200912,
      "byteLength": 8496,
      "target": 34962,
      "byteStride": 12
    },
    {
      "buffer": 0,
      "byteOffset": 1209408,
      "byteLength": 5664,
      "target": 34962,
      "byteStride": 8
    },
    {
      "buffer": 0,
      "byteOffset": 1215072,
      "byteLength": 93168,
      "target": 34962,
      "byteStride": 12
    },
    {
      "buffer": 0,
      "byteOffset": 1308240,
      "byteLength": 93168,
      "target": 34962,
      "byteStride": 12
    },
    {
      "buffer": 0,
      "byteOffset": 1401408,
      "byteLength": 62112,
      "target": 34962,
      "byteStride": 8
    },
    {
      "buffer": 0,
      "byteOffset": 1463520,
      "byteLength": 26856,
      "target": 34962,
      "byteStride": 12
    },
    {
      "buffer": 0,
      "byteOffset": 1490376,
      "byteLength": 26856,
      "target": 34962,
      "byteStride": 12
    },
    {
      "buffer": 0,
      "byteOffset": 1517232,
      "byteLength": 17904,
      "target": 34962,
      "byteStride": 8
    }
  ],
  "buffers": [
    {
      "byteLength": 1535136,
      "uri": "data:application/octet-stream;base64,"
    }
  ],
  "accessors": [
    {
      "bufferView": 0,
      "componentType": 5126,
      "count": 37083,
      "max": [
        0.20813299715518951,
        0.308243989944458,
        0.18258899450302124
      ],
      "min": [
        -0.2087630033493042,
        -0.17014800012111664,
        -0.34155699610710144
      ],
      "type": "VEC3"
    },
    {
      "bufferView": 1,
      "componentType": 5126,
      "count": 37083,
      "max": [
        1,
        0.9998999834060669,
        1
      ],
      "min": [
        -1,
        -0.9998999834060669,
        -0.9998999834060669
      ],
      "type": "VEC3"
    },
    {
      "bufferView": 2,
      "componentType": 5126,
      "count": 37083,
      "max": [
        0.9825279712677002,
        0.9944109916687012
      ],
      "min": [
        0.0039059999398887157,
        0.0039059999398887157
      ],
      "type": "VEC2"
    },
    {
      "bufferView": 3,
      "componentType": 5126,
      "count": 180,
      "max": [
        0.0528700016438961,
        1.0156300067901611,
        0.1908549964427948
      ],
      "min": [
        -0.0528700016438961,
        -0.2110079973936081,
        -0.03490699827671051
      ],
      "type": "VEC3"
    },
    {
      "bufferView": 4,
      "componentType": 5126,
      "count": 180,
      "max": [
        0.9999989867210388,
        0.997838020324707,
        0.9868370294570923
      ],
      "min": [
        -0.9999989867210388,
        -0.9081799983978271,
        -0.9999979734420776
      ],
      "type": "VEC3"
    },
    {
      "bufferView": 5,
      "componentType": 5126,
      "count": 180,
      "max": [
        0.9909980297088623,
        0.8927770256996155
      ],
      "min": [
        0.8134549856185913,
        0.02444699965417385
      ],
      "type": "VEC2"
    },
    {
      "bufferView": 6,
      "componentType": 5126,
      "count": 708,
      "max": [
        0.05330599844455719,
        1.0111149549484253,
        0.17260000109672546
      ],
      "min": [
        -0.05330599844455719,
        -0.01584400050342083,
        -0.05021899938583374
      ],
      "type": "VEC3"
    },
    {
      "bufferView": 7,
      "componentType": 5126,
      "count": 708,
      "max": [
        0.999970018863678,
        0.9959949851036072,
        0.9997259974479675
      ],
      "min": [
        -0.9999819993972778,
        -0.9623000025749207,
        -0.9999679923057556
      ],
      "type": "VEC3"
    },
    {
      "bufferView": 8,
      "componentType": 5126,
      "count": 708,
      "max": [
        0.9911550283432007,
        0.9939839839935303
      ],
      "min": [
        0.3151409924030304,
        0.024810999631881714
      ],
      "type": "VEC2"
    },
    {
      "bufferView": 9,
      "componentType": 5126,
      "count": 7764,
      "max": [
        0.49540001153945923,
        0.6880000233650208,
        0.34369999170303345
      ],
      "min": [
        -0.5042999982833862,
        -0.6872000098228455,
        0
      ],
      "type": "VEC3"
    },
    {
      "bufferView": 10,
      "componentType": 5126,
      "count": 7764,
      "max": [
        1,
        1,
        1
      ],
      "min": [
        -1,
        -1,
        -1
      ],
      "type": "VEC3"
    },
    {
      "bufferView": 11,
      "componentType": 5126,
      "count": 7764,
      "max": [
        0.9934070110321045,
        0.9927129745483398
      ],
      "min": [
        0.004947000183165073,
        0.005162999965250492
      ],
      "type": "VEC2"
    },
    {
      "bufferView": 12,
      "componentType": 5126,
      "count": 2238,
      "max": [
        0.46090900897979736,
        0.4699839949607849,
        0.9677000045776367
      ],
      "min": [
        -0.4631910026073456,
        -0.9432160258293152,
        0.3391000032424927
      ],
      "type": "VEC3"
    },
    {
      "bufferView": 13,
      "componentType": 5126,
      "count": 2238,
      "max": [
        1,
        1,
        1
      ],
      "min": [
        -1,
        -1,
        -1
      ],
      "type": "VEC3"
    },
    {
      "bufferView": 14,
      "componentType": 5126,
      "count": 2238,
      "max": [
        0.8072699904441833,
        0.80349200963974
      ],
      "min": [
        0.011904999613761902,
        0.01118099968880415
      ],
      "type": "VEC2"
    }
  ],
  "materials": [
    {
      "pbrMetallicRoughness": {
        "metallicFactor": 0.5,
        "roughnessFactor": 0.5
      },
      "name": "HEX_Linkage:G360_Arm_01SG"
    },
    {
      "pbrMetallicRoughness": {
        "metallicFactor": 0.5,
        "roughnessFactor": 0.5
      },
      "name": "BODY"
    },
    {
      "pbrMetallicRoughness": {
        "metallicFactor": 0.5,
        "roughnessFactor": 0.5
      },
      "name": "BODY"
    },
    {
      "pbrMetallicRoughness": {
        "metallicFactor": 0.5,
        "roughnessFactor": 0.5
      },
      "name": "TRACKS"
    },
    {
      "pbrMetallicRoughness": {
        "metallicFactor": 0.5,
        "roughnessFactor": 0.5
      },
      "name": "BODY"
    }
  ],
  "meshes": [
    {
      "primitives": [
        {
          "mode": 4,
          "attributes": {
            "POSITION": 0,
            "NORMAL": 1,
            "TEXCOORD_0": 2
          },
          "material": 0
        }
      ]
    },
    {
      "primitives": [
        {
          "mode": 4,
          "attributes": {
            "POSITION": 3,
            "NORMAL": 4,
            "TEXCOORD_0": 5
          },
          "material": 1
        }
      ]
    },
    {
      "primitives": [
        {
          "mode": 4,
          "attributes": {
            "POSITION": 6,
            "NORMAL": 7,
            "TEXCOORD_0": 8
          },
          "material": 2
        }
      ]
    },
    {
      "primitives": [
        {
          "mode": 4,
          "attributes": {
            "POSITION": 9,
            "NORMAL": 10,
            "TEXCOORD_0": 11
          },
          "material": 3
        }
      ]
    },
    {
      "primitives": [
        {
          "mode": 4,
          "attributes": {
            "POSITION": 12,
            "NORMAL": 13,
            "TEXCOORD_0": 14
          },
          "material": 4
        }
      ]
    }
  ],
  "extensionsUsed": [
    "KHR_lights_punctual"
  ]
}